<?xml version="1.0" standalone="no"?>
<!DOCTYPE svg PUBLIC "-//W3C//DTD SVG 20010904//EN"
 "http://www.w3.org/TR/2001/REC-SVG-20010904/DTD/svg10.dtd">
<svg version="1.0" xmlns="http://www.w3.org/2000/svg"
 width="3596.000000pt" height="3596.000000pt" viewBox="0 0 3596.000000 3596.000000"
 preserveAspectRatio="xMidYMid meet">
<metadata>
Created by potrace 1.11, written by Peter Selinger 2001-2013
</metadata>
<g transform="translate(0.000000,3596.000000) scale(0.100000,-0.100000)"
fill="#000000" stroke="none">
<path d="M12869 27876 c-2 -2 -53 -7 -114 -11 -129 -8 -143 -9 -255 -24 -138
-19 -152 -21 -215 -32 -33 -6 -71 -13 -85 -15 -14 -2 -45 -9 -70 -14 -25 -5
-56 -12 -70 -14 -365 -70 -915 -272 -1267 -465 -273 -150 -540 -329 -748 -500
-170 -140 -414 -375 -516 -496 -19 -22 -39 -44 -45 -50 -6 -5 -33 -37 -60 -71
-27 -34 -64 -80 -83 -103 -42 -53 -59 -76 -167 -236 -218 -322 -389 -675 -507
-1045 -42 -131 -96 -339 -112 -429 -3 -19 -7 -37 -9 -40 -2 -3 -7 -28 -10 -56
-3 -27 -8 -61 -10 -75 -18 -100 -28 -192 -41 -385 -27 -378 22 -851 126 -1245
30 -112 90 -305 108 -345 5 -11 19 -47 31 -80 23 -63 34 -88 70 -170 157 -353
370 -697 612 -986 60 -72 181 -210 204 -233 151 -150 346 -329 415 -381 15
-11 80 -61 145 -111 230 -176 495 -337 786 -478 86 -42 160 -76 163 -76 4 0
29 -10 120 -51 55 -24 340 -126 376 -134 9 -2 46 -13 83 -24 62 -19 316 -83
381 -96 182 -36 412 -70 535 -80 30 -2 96 -8 145 -12 115 -9 559 -10 690 0
154 11 377 37 457 52 13 3 39 8 58 11 75 12 287 56 315 64 17 5 84 23 150 41
185 49 477 149 620 213 17 8 53 24 80 36 101 44 262 125 374 188 99 55 365
219 396 244 6 5 69 52 140 105 72 53 132 99 135 102 3 4 21 19 40 35 191 156
498 466 614 622 17 21 33 41 36 44 12 9 145 193 208 286 144 215 302 517 397
758 55 142 123 345 141 421 1 6 12 48 24 95 12 47 24 96 26 110 2 14 7 36 10
50 3 14 8 35 10 48 2 12 6 34 9 50 9 48 24 146 30 192 3 25 8 61 10 80 25 193
26 722 1 845 -2 11 -7 49 -10 85 -4 36 -9 79 -11 95 -9 52 -15 89 -19 111 -2
12 -7 37 -10 55 -3 19 -20 90 -36 159 -17 69 -33 136 -36 149 -3 14 -7 28 -10
33 -3 4 -7 16 -9 25 -23 113 -197 556 -252 646 -13 20 -20 37 -17 37 4 0 2 6
-4 13 -5 6 -29 48 -52 92 -86 160 -221 371 -333 520 -194 258 -487 564 -727
761 -19 16 -37 31 -40 35 -14 16 -269 201 -367 265 -134 88 -344 210 -468 271
-101 50 -334 155 -380 171 -16 6 -55 20 -85 32 -111 43 -355 124 -440 145
-231 58 -367 87 -505 109 -16 2 -48 7 -70 11 -22 3 -55 8 -73 10 -18 2 -49 6
-70 9 -20 3 -71 8 -112 12 -41 3 -91 8 -110 11 -41 5 -636 13 -641 9z"/>
<path d="M23377 27874 c-1 -1 -56 -4 -122 -8 -218 -12 -519 -53 -700 -96 -260
-61 -539 -143 -660 -195 -16 -7 -84 -34 -150 -61 -153 -62 -424 -199 -585
-296 -361 -217 -691 -484 -975 -790 -107 -114 -130 -141 -214 -248 -46 -58
-92 -116 -103 -130 -39 -48 -206 -306 -263 -405 -57 -98 -151 -282 -195 -380
-71 -157 -205 -539 -224 -639 -2 -11 -7 -28 -10 -36 -3 -8 -8 -26 -10 -40 -3
-14 -14 -70 -26 -125 -12 -55 -23 -111 -25 -125 -3 -24 -10 -66 -20 -120 -2
-14 -7 -50 -10 -80 -4 -30 -8 -66 -10 -80 -19 -125 -25 -587 -11 -745 12 -125
25 -241 31 -277 2 -9 7 -38 11 -65 3 -26 8 -57 10 -68 2 -11 6 -32 9 -48 63
-342 190 -719 356 -1052 44 -88 84 -167 89 -175 5 -8 39 -67 76 -130 37 -63
70 -117 73 -120 3 -3 11 -12 16 -21 6 -9 31 -47 57 -85 27 -38 56 -80 65 -94
87 -127 274 -342 453 -520 427 -427 947 -768 1520 -995 107 -43 299 -109 375
-130 28 -8 83 -23 123 -35 440 -125 1003 -184 1492 -155 209 12 303 22 507 56
176 29 182 30 349 70 399 95 838 267 1168 458 49 28 90 51 92 51 6 0 208 131
294 191 101 71 233 172 314 242 28 23 68 58 90 77 114 97 360 353 495 515 42
51 216 288 255 350 21 33 49 76 61 95 92 143 220 392 310 604 40 94 124 331
129 361 1 5 4 15 8 20 24 39 127 526 143 675 4 36 9 79 11 95 24 227 24 728
-1 857 -2 11 -7 46 -10 79 -4 33 -8 70 -11 82 -3 12 -7 39 -9 59 -2 21 -11 73
-20 115 -9 43 -19 89 -21 103 -22 119 -99 381 -161 550 -35 96 -44 117 -82
202 -11 26 -21 50 -21 53 0 8 -111 230 -155 310 -377 687 -963 1280 -1665
1685 -136 78 -461 240 -483 240 -7 0 -17 4 -23 8 -5 5 -25 15 -44 22 -19 7
-48 19 -65 26 -159 67 -587 194 -735 219 -19 3 -42 8 -50 10 -8 2 -28 7 -45
10 -16 2 -39 7 -50 9 -11 2 -56 9 -100 16 -44 6 -91 13 -105 15 -49 8 -170 20
-305 31 -72 6 -502 13 -508 8z"/>
<path d="M12977 17924 c-1 -1 -62 -5 -136 -8 -74 -4 -148 -8 -165 -11 -17 -2
-59 -6 -93 -10 -82 -7 -135 -14 -203 -25 -30 -6 -73 -12 -95 -16 -113 -17
-398 -81 -530 -120 -82 -24 -159 -46 -170 -49 -12 -3 -59 -19 -105 -36 -47
-17 -96 -34 -110 -39 -169 -55 -541 -234 -770 -370 -150 -89 -476 -313 -510
-350 -3 -3 -17 -15 -32 -26 -173 -133 -457 -413 -624 -614 -355 -428 -615
-902 -772 -1405 -42 -134 -87 -303 -97 -365 -3 -19 -8 -42 -10 -50 -2 -8 -7
-28 -10 -45 -3 -16 -7 -41 -10 -55 -5 -26 -9 -60 -20 -145 -3 -27 -8 -59 -10
-70 -19 -99 -28 -642 -12 -790 15 -139 20 -180 23 -197 1 -9 5 -38 9 -65 4
-26 13 -82 22 -123 8 -41 17 -86 19 -100 21 -117 127 -478 169 -575 7 -16 23
-57 35 -90 51 -132 192 -413 300 -594 100 -167 293 -429 434 -590 56 -64 340
-347 402 -401 28 -25 64 -57 81 -71 133 -116 409 -311 598 -423 72 -42 137
-81 145 -86 42 -26 317 -162 405 -199 55 -23 109 -47 120 -52 100 -45 471
-167 625 -204 109 -26 194 -45 222 -50 18 -3 65 -12 103 -20 39 -8 117 -21
175 -30 58 -8 121 -17 140 -19 36 -5 78 -10 230 -23 171 -15 788 -7 887 11 10
2 47 7 83 11 84 10 96 12 150 19 437 64 923 205 1300 379 185 85 429 212 452
235 7 7 16 12 21 12 15 0 278 173 397 261 293 218 562 472 800 755 48 57 206
270 253 341 141 213 319 551 402 763 40 101 131 373 139 412 3 12 14 60 25
105 26 101 58 255 67 320 3 26 8 56 10 67 2 10 6 44 9 75 4 31 8 67 11 81 23
134 22 644 -1 815 -29 209 -39 276 -61 380 -147 715 -475 1353 -999 1941 -73
82 -276 279 -369 359 -32 28 -63 55 -69 60 -117 106 -463 346 -662 460 -206
119 -477 246 -700 330 -55 21 -109 41 -120 46 -114 47 -573 167 -745 194 -19
3 -60 10 -90 15 -30 5 -75 12 -100 15 -25 3 -56 8 -70 10 -14 2 -56 7 -93 10
-38 3 -83 8 -100 10 -96 12 -590 28 -600 19z"/>
<path d="M23688 17086 c-12 -25 -58 -104 -249 -431 -87 -150 -110 -191 -158
-275 -14 -25 -29 -46 -33 -48 -4 -2 -8 -8 -8 -14 0 -6 -24 -51 -54 -102 -30
-50 -129 -221 -221 -381 -210 -364 -242 -419 -275 -475 -15 -25 -70 -119 -123
-210 -52 -91 -106 -185 -121 -210 -14 -25 -46 -81 -71 -125 -26 -44 -55 -96
-67 -115 -11 -19 -106 -183 -210 -365 -105 -181 -212 -366 -238 -410 -26 -44
-110 -188 -185 -320 -76 -132 -145 -251 -154 -265 -9 -14 -21 -35 -28 -47 -17
-32 -361 -630 -390 -678 -30 -49 -127 -216 -157 -270 -28 -50 -236 -408 -265
-455 -11 -19 -24 -41 -28 -49 -3 -8 -51 -91 -106 -185 -55 -94 -105 -180 -111
-191 -47 -83 -143 -248 -166 -287 -16 -26 -42 -71 -59 -100 -16 -29 -52 -93
-81 -143 -29 -49 -61 -106 -72 -125 -82 -145 -254 -440 -269 -462 -11 -15 -19
-29 -19 -32 0 -2 -19 -37 -43 -78 -24 -40 -55 -93 -69 -118 -14 -25 -35 -62
-48 -82 -21 -36 -21 -38 -3 -39 87 -3 8193 -8 8193 -5 0 2 -75 134 -166 292
-92 159 -174 303 -184 319 -9 17 -68 119 -131 228 -63 109 -122 212 -133 230
-262 456 -519 901 -535 928 -12 19 -24 41 -28 49 -4 8 -49 86 -100 174 -51 87
-93 161 -93 164 0 3 -18 33 -40 68 -22 35 -40 65 -40 68 0 2 -19 37 -43 78
-24 40 -55 93 -69 118 -14 25 -67 117 -118 205 -51 88 -102 176 -113 195 -10
19 -36 64 -57 100 -21 36 -47 81 -58 100 -10 19 -61 107 -112 195 -51 88 -118
203 -148 255 -84 146 -88 154 -190 330 -52 91 -104 181 -115 200 -10 19 -45
80 -77 135 -32 55 -67 116 -77 135 -11 19 -163 283 -338 585 -175 303 -329
570 -343 595 -29 51 -184 321 -246 425 -22 39 -47 81 -54 95 -7 13 -21 38 -31
55 -10 16 -30 50 -43 75 -27 49 -303 528 -373 648 -43 73 -43 73 -57 48z"/>
</g>
</svg>
